<svg width="22" height="22" viewBox="0 0 22 22" fill="none" xmlns="http://www.w3.org/2000/svg">
    <g clip-path="url(#clip0)">
        <path d="M21.6918 1.95347L20.1721 0.451821C19.7609 0.0406058 19.0815 0.0406058 18.6524 0.451821L11.0717 8.0323L3.34821 0.308789C2.93682 -0.102604 2.25742 -0.102604 1.8285 0.308789L0.308797 1.8285C-0.102597 2.23971 -0.102597 2.91911 0.308797 3.3482L8.01461 11.054L0.451828 18.6526C0.0406134 19.0638 0.0406134 19.7432 0.451828 20.1723L1.97154 21.692C2.38275 22.1032 3.06215 22.1032 3.49124 21.692L11.0717 14.1113L18.6524 21.692C19.0636 22.1032 19.743 22.1032 20.1721 21.692L21.6918 20.1723C22.103 19.761 22.103 19.0816 21.6918 18.6526L14.0933 11.0719L21.6739 3.49141C22.103 3.06196 22.103 2.38256 21.6918 1.95347Z"
              fill="#8D8989"/>
    </g>
    <defs>
        <clipPath id="clip0">
            <rect width="22" height="22" fill="white"/>
        </clipPath>
    </defs>
</svg>
